{
  "accessors": [
    {
      "bufferView": 2,
      "componentType": 5126,
      "count": 65533,
      "max": [
        0.20158466696739197,
        0.17043210566043854,
        0.3484090268611908
      ],
      "min": [
        -0.19936692714691162,
        -0.1565122902393341,
        -0.38626185059547424
      ],
      "type": "VEC3"
    },
    {
      "bufferView": 2,
      "byteOffset": 786396,
      "componentType": 5126,
      "count": 65533,
      "max": [
        0.9999847412109375,
        0.9999894499778748,
        0.9994116425514221
      ],
      "min": [
        -0.9999887943267822,
        -0.9999678134918213,
        -0.9994275569915771
      ],
      "type": "VEC3"
    },
    {
      "bufferView": 1,
      "componentType": 5126,
      "count": 65533,
      "max": [
        0.9951838254928589,
        0.9960939884185791
      ],
      "min": [
        0.005852866917848587,
        0.004354000091552734
      ],
      "type": "VEC2"
    },
    {
      "bufferView": 0,
      "componentType": 5125,
      "count": 69945,
      "type": "SCALAR"
    },
    {
      "bufferView": 2,
      "byteOffset": 1572792,
      "componentType": 5126,
      "count": 9673,
      "max": [
        0.2006341814994812,
        0.053773023188114166,
        0.3453562259674072
      ],
      "min": [
        -0.20249739289283752,
        -0.06985688954591751,
        -0.38626185059547424
      ],
      "type": "VEC3"
    },
    {
      "bufferView": 2,
      "byteOffset": 1688868,
      "componentType": 5126,
      "count": 9673,
      "max": [
        0.9998707175254822,
        0.998651385307312,
        0.9988657236099243
      ],
      "min": [
        -0.9999831318855286,
        -0.9995837807655334,
        -0.9996999502182007
      ],
      "type": "VEC3"
    },
    {
      "bufferView": 1,
      "byteOffset": 524264,
      "componentType": 5126,
      "count": 9673,
      "max": [
        0.9937863349914551,
        0.9508728981018066
      ],
      "min": [
        0.007869789376854897,
        0.010985493659973145
      ],
      "type": "VEC2"
    },
    {
      "bufferView": 0,
      "byteOffset": 279780,
      "componentType": 5125,
      "count": 10245,
      "type": "SCALAR"
    },
    {
      "bufferView": 2,
      "byteOffset": 1804944,
      "componentType": 5126,
      "count": 42760,
      "max": [
        0.20774784684181213,
        0.17639513313770294,
        0.3493819236755371
      ],
      "min": [
        -0.20949803292751312,
        -0.1582799106836319,
        -0.3875699043273926
      ],
      "type": "VEC3"
    },
    {
      "bufferView": 2,
      "byteOffset": 2318064,
      "componentType": 5126,
      "count": 42760,
      "max": [
        0.9860921502113342,
        0.9521116018295288,
        0.8413317203521729
      ],
      "min": [
        -0.9860938191413879,
        -0.8312444090843201,
        -0.7297893762588501
      ],
      "type": "VEC3"
    },
    {
      "bufferView": 1,
      "byteOffset": 601648,
      "componentType": 5126,
      "count": 42760,
      "max": [
        0.0,
        1.0
      ],
      "min": [
        0.0,
        1.0
      ],
      "type": "VEC2"
    },
    {
      "bufferView": 0,
      "byteOffset": 320760,
      "componentType": 5125,
      "count": 42789,
      "type": "SCALAR"
    }
  ],
  "asset": {
    "extras": {
      "author": "jin (https://sketchfab.com/madjin)",
      "license": "CC-BY-4.0 (http://creativecommons.org/licenses/by/4.0/)",
      "source": "https://sketchfab.com/3d-models/alien-ath-nug-9ccc3a035632456292e5e603f03369e5",
      "title": "Alien ATH Nug"
    },
    "generator": "Sketchfab-15.0.0",
    "version": "2.0"
  },
  "bufferViews": [
    {
      "buffer": 0,
      "byteLength": 491916,
      "name": "floatBufferViews",
      "target": 34963
    },
    {
      "buffer": 0,
      "byteLength": 943728,
      "byteOffset": 491916,
      "byteStride": 8,
      "name": "floatBufferViews",
      "target": 34962
    },
    {
      "buffer": 0,
      "byteLength": 2831184,
      "byteOffset": 1435644,
      "byteStride": 12,
      "name": "floatBufferViews",
      "target": 34962
    }
  ],
  "buffers": [
    {
      "byteLength": 4266828,
      "uri": "scene.bin"
    }
  ],
  "extensionsUsed": [
    "KHR_materials_specular"
  ],
  "images": [
    {
      "uri": "textures/Alien_ATH_baseColor.jpeg"
    },
    {
      "uri": "textures/Alien_ATH_specularf0.png"
    }
  ],
  "materials": [
    {
      "doubleSided": true,
      "extensions": {
        "KHR_materials_specular": {
          "specularColorFactor": [
            1.0,
            1.0,
            1.0
          ],
          "specularFactor": 1.0,
          "specularTexture": {
            "index": 1
          }
        }
      },
      "name": "Alien_ATH",
      "pbrMetallicRoughness": {
        "baseColorTexture": {
          "index": 0
        },
        "metallicFactor": 0.315385,
        "roughnessFactor": 0.769231
      }
    },
    {
      "doubleSided": true,
      "name": "hairs",
      "pbrMetallicRoughness": {
        "baseColorFactor": [
          0.692651,
          0.700177,
          0.723038,
          1.0
        ],
        "metallicFactor": 0.161538,
        "roughnessFactor": 0.0307692
      }
    }
  ],
  "meshes": [
    {
      "name": "Object_0",
      "primitives": [
        {
          "attributes": {
            "NORMAL": 1,
            "POSITION": 0,
            "TEXCOORD_0": 2
          },
          "indices": 3,
          "material": 0,
          "mode": 4
        }
      ]
    },
    {
      "name": "Object_1",
      "primitives": [
        {
          "attributes": {
            "NORMAL": 5,
            "POSITION": 4,
            "TEXCOORD_0": 6
          },
          "indices": 7,
          "material": 0,
          "mode": 4
        }
      ]
    },
    {
      "name": "Object_2",
      "primitives": [
        {
          "attributes": {
            "NORMAL": 9,
            "POSITION": 8,
            "TEXCOORD_0": 10
          },
          "indices": 11,
          "material": 1,
          "mode": 4
        }
      ]
    }
  ],
  "nodes": [
    {
      "children": [
        1
      ],
      "matrix": [
        1.0,
        0.0,
        0.0,
        0.0,
        0.0,
        2.220446049250313e-16,
        -1.0,
        0.0,
        0.0,
        1.0,
        2.220446049250313e-16,
        0.0,
        0.0,
        0.0,
        0.0,
        1.0
      ],
      "name": "Sketchfab_model"
    },
    {
      "children": [
        2
      ],
      "name": "root"
    },
    {
      "children": [
        3
      ],
      "matrix": [
        1.0,
        0.0,
        0.0,
        0.0,
        0.0,
        2.220446049250313e-16,
        1.0,
        0.0,
        0.0,
        -1.0,
        2.220446049250313e-16,
        0.0,
        0.0,
        0.0,
        0.0,
        1.0
      ],
      "name": "GLTF_SceneRootNode"
    },
    {
      "children": [
        4,
        5,
        6
      ],
      "matrix": [
        1.1275844802659178,
        -1.5581014527254475e-09,
        -0.2674475228357977,
        0.0,
        0.2674475228357936,
        -1.968847679394819e-07,
        1.1275844802659019,
        0.0,
        -4.695378298805239e-08,
        -1.158867955207808,
        -1.9121030784406116e-07,
        0.0,
        0.05828159302473068,
        0.464101642370224,
        -0.031000427901744843,
        1.0
      ],
      "name": "Alien_ATH_0"
    },
    {
      "mesh": 0,
      "name": "Object_4"
    },
    {
      "mesh": 1,
      "name": "Object_5"
    },
    {
      "mesh": 2,
      "name": "Object_6"
    }
  ],
  "samplers": [
    {
      "magFilter": 9729,
      "minFilter": 9987,
      "wrapS": 10497,
      "wrapT": 10497
    }
  ],
  "scene": 0,
  "scenes": [
    {
      "name": "Sketchfab_Scene",
      "nodes": [
        0
      ]
    }
  ],
  "textures": [
    {
      "sampler": 0,
      "source": 0
    },
    {
      "sampler": 0,
      "source": 1
    }
  ]
}
